<?xml version="1.0" encoding="utf-8"?>
<!-- Generator: Adobe Illustrator 17.0.0, SVG Export Plug-In . SVG Version: 6.00 Build 0)  -->
<!DOCTYPE svg PUBLIC "-//W3C//DTD SVG 1.1//EN" "http://www.w3.org/Graphics/SVG/1.1/DTD/svg11.dtd">
<svg version="1.1" id="图层_1" xmlns="http://www.w3.org/2000/svg" xmlns:xlink="http://www.w3.org/1999/xlink" x="0px" y="0px"
	 width="91px" height="39px" viewBox="0 0 91 39" enable-background="new 0 0 91 39" xml:space="preserve">
<g id="_x33_">
	<g>
		<path fill="#FFFFFF" d="M26.706,5.635c0.195,0,0.37-0.135,0.443-0.34l0.46-1.305c0.059-0.167,0.041-0.357-0.048-0.505
			c-0.089-0.149-0.236-0.238-0.395-0.238h-0.543V1.896c0-0.299-0.213-0.542-0.477-0.542h-3.273c-0.263,0-0.477,0.242-0.477,0.542
			v1.351h-0.468c-0.264,0-0.477,0.242-0.477,0.542v1.305c0,0.299,0.213,0.542,0.477,0.542h0.468l0.02,7.305l-0.406,0.146
			c-0.309,0.109-0.56,0.482-0.56,0.833v1.6c0,0.351,0.251,0.549,0.56,0.439l0.414-0.152l0.01,3.863l-1.505,0.556
			c-0.309,0.109-0.56,0.482-0.56,0.833v1.6c0,0.352,0.251,0.549,0.56,0.439l5.189-1.867c0.309-0.109,0.494-0.601,0.494-0.953V20.16
			c0.002-0.017,0.009-0.032,0.009-0.049v-5.85c0.247-0.109,0.299-0.271,0.38-0.512l0.629-1.866c0.05-0.401-0.241-0.727-0.55-0.618
			l-0.46,0.165V5.633L26.706,5.635L26.706,5.635z"/>
		<path fill="#FFFFFF" d="M40.25,2.202h-1.474h-1.799h-3.72l0.204-0.706c0.055-0.166,0.036-0.353-0.053-0.501
			c-0.089-0.147-0.235-0.235-0.392-0.235h-3.273c-0.198,0-0.375,0.139-0.445,0.349l-0.334,1.092h-0.547
			c-0.264,0-0.477,0.242-0.477,0.542v16.53c0,0.299,0.213,0.542,0.477,0.542h8.695c3.215,0,3.615-2.381,3.615-4.454V2.744
			C40.727,2.445,40.514,2.202,40.25,2.202z M34.13,17.486c-1.299,0-1.963,0-1.963,0v-5.263l2.943-1.078
			c0.309-0.109,0.36-0.279,0.449-0.54l0.629-1.866c0.05-0.401-0.241-0.727-0.55-0.618l-3.47,1.241V4.534h4.334
			c0,2.865,0,8.332,0,10.002C36.501,17.155,35.428,17.486,34.13,17.486z"/>
		<path fill="#FFFFFF" d="M4.497,6.281c0.264,0,0.477-0.242,0.477-0.542V4.674l10.807-0.001V4.98v0.759
			c0,0.299,0.213,0.542,0.477,0.542h3.229c0.264,0,0.477-0.242,0.477-0.542V2.827c0-0.299-0.213-0.542-0.477-0.542
			c0,0-0.38,0-0.84,0c-0.012-0.001-0.023-0.005-0.034-0.005h-5.901l-0.003,0.005h-0.262V1.304c0-0.299-0.213-0.542-0.477-0.542
			H8.785c-0.264,0-0.477,0.242-0.477,0.542v0.981h-7.04c-0.264,0-0.477,0.242-0.477,0.542v2.912c0,0.299,0.213,0.542,0.477,0.542
			H4.497L4.497,6.281z"/>
		<path fill="#FFFFFF" d="M19.584,17.353h-3.383l-1.397,0.902c-0.118,0.076-0.25,0.114-0.381,0.114s-0.264-0.038-0.381-0.114
			c-0.236-0.153-0.381-0.434-0.381-0.739v-0.163h-0.956v-3.88h0.975c0.041-0.241,0.168-0.456,0.363-0.582
			c0.118-0.076,0.25-0.114,0.381-0.114s0.264,0.038,0.381,0.114l0.901,0.582h1.142c0.184,0,0.351-0.12,0.431-0.31l0.569-1.578
			c0.07-0.168,0.06-0.365-0.028-0.522s-0.24-0.038-0.403-0.038h-4.713V9.377h5.526c0.184,0,0.352-0.12,0.431-0.31l0.569-1.363
			c0.07-0.168,0.06-0.364-0.028-0.522c-0.088-0.157-0.24-0.253-0.403-0.253H2.326c-0.263,0-0.477,0.242-0.477,0.542v1.363
			c0,0.299,0.213,0.542,0.477,0.542h5.767v1.648H3.315c-0.264,0-0.477,0.242-0.477,0.542v1.363c0,0.299,0.213,0.542,0.477,0.542
			h4.778v3.88H1.541c-0.264,0-0.477,0.242-0.477,0.542v1.362c0,0.299,0.213,0.542,0.477,0.542h17.474c0.184,0,0.351-0.12,0.431-0.31
			l0.569-1.363c0.07-0.168,0.06-0.365-0.028-0.522C19.9,17.448,19.748,17.353,19.584,17.353z"/>
		<path fill="#FFFFFF" d="M17.66,15.18l-3.01-1.943c-0.054-0.035-0.114-0.053-0.176-0.053c-0.061,0-0.122,0.019-0.176,0.054
			c-0.121,0.078-0.197,0.229-0.197,0.392v3.886c0,0.165,0.075,0.315,0.197,0.392c0.054,0.035,0.115,0.054,0.176,0.054
			s0.122-0.019,0.177-0.054l3.009-1.943c0.121-0.078,0.197-0.229,0.197-0.393C17.857,15.408,17.782,15.258,17.66,15.18z"/>
	</g>
	<g enable-background="new    ">
		<path fill="#FFFFFF" d="M48.827,12.858c-0.972-1.266-1.796-2.659-2.475-4.18v10.259h-1.455V9.21
			c-0.485,1.52-1.408,3.395-2.766,5.623v-1.747c1.261-2.482,2.158-5.092,2.692-7.827h-2.401V4.195h2.475V1.46h1.455v2.735h2.256
			v1.064h-2.183c0.533,2.229,1.333,4.255,2.401,6.079L48.827,12.858L48.827,12.858z M49.481,18.329V2.599h8.951v13.603
			c0.097,1.52-0.631,2.229-2.184,2.128L49.481,18.329C49.481,18.33,49.481,18.329,49.481,18.329z M51.01,3.662v3.8h5.968v-3.8H51.01
			z M51.01,8.527v3.875h5.968V8.527H51.01z M51.01,17.265h4.876c0.775,0.051,1.139-0.304,1.092-1.063v-2.735H51.01V17.265
			L51.01,17.265z"/>
		<path fill="#FFFFFF" d="M61.125,5.41V4.347h2.328V1.459h1.456v2.888h2.183V5.41h-2.183c0.533,2.128,1.31,4.027,2.328,5.699v1.444
			c-1.067-1.418-1.844-2.71-2.328-3.876v10.184h-1.456V9.437c-0.582,1.824-1.48,3.724-2.692,5.7v-1.672
			c1.164-2.533,2.038-5.218,2.62-8.056L61.125,5.41L61.125,5.41z M66.219,18.862v-1.216c1.648-1.521,2.401-4.104,2.256-7.752V2.523
			h6.258v13.831c-0.049,0.607,0.291,0.886,1.02,0.836c0.679,0.05,0.993-0.229,0.945-0.836v-0.532h1.092v0.684
			c0.048,1.216-0.534,1.798-1.746,1.748h-0.801c-1.358,0.05-2.014-0.607-1.965-1.976V3.588H69.93v6.155
			C70.123,14.1,68.886,17.138,66.219,18.862z"/>
	</g>
</g>
</svg>
